<svg width="24" height="24" viewBox="0 0 24 24" fill="none" xmlns="http://www.w3.org/2000/svg">
<path d="M6 7C6 9.20914 7.79086 11 10 11C12.2091 11 14 9.20914 14 7C14 4.79086 12.2091 3 10 3" stroke="#1D4ED8" stroke-width="1.5" stroke-linecap="round"/>
<path d="M3 16.9347C3 16.0743 3.54085 15.3068 4.35109 15.0175C8.00404 13.7128 11.996 13.7128 15.6489 15.0175C16.4591 15.3068 17 16.0743 17 16.9347V18.2502C17 19.4376 15.9483 20.3498 14.7728 20.1818L13.8184 20.0455C11.2856 19.6837 8.71435 19.6837 6.18162 20.0455L5.22721 20.1818C4.0517 20.3498 3 19.4376 3 18.2502V16.9347Z" stroke="#1D4ED8" stroke-width="1.5"/>
<path d="M17 11H21" stroke="#1D4ED8" stroke-width="1.5" stroke-linecap="round" stroke-linejoin="round"/>
<path d="M19 9L19 13" stroke="#1D4ED8" stroke-width="1.5" stroke-linecap="round" stroke-linejoin="round"/>
</svg>
