<svg width="18" height="22" viewBox="0 0 18 22" fill="none" xmlns="http://www.w3.org/2000/svg">
<path d="M5.23211 1.75C6.1918 1.11786 7.34099 0.75 8.57609 0.75C11.9378 0.75 14.6631 3.47522 14.6631 6.83696V8.92951C14.6631 10.0298 15.3721 10.9922 15.9357 11.9372C16.232 12.434 16.4022 13.0147 16.4022 13.6351C16.4022 15.238 15.257 16.6133 13.6693 16.8334C12.0926 17.0521 10.1224 17.272 8.57609 17.272C7.02974 17.272 5.0596 17.0521 3.48291 16.8334C1.8952 16.6133 0.75 15.238 0.75 13.6351C0.75 13.0147 0.920204 12.434 1.21647 11.9372C1.78006 10.9922 2.48914 10.0298 2.48914 8.92949V6.83696C2.48914 6.00578 2.65573 5.21351 2.95735 4.49173" stroke="#2B3F6C" stroke-width="1.5" stroke-linecap="round"/>
<path d="M10.75 19.584C10.2826 20.2869 9.48347 20.7502 8.57609 20.7502C7.66871 20.7502 6.86954 20.2869 6.40218 19.584" stroke="#2B3F6C" stroke-width="1.5" stroke-linecap="round"/>
</svg>
