<svg width="24" height="24" viewBox="0 0 24 24" fill="none" xmlns="http://www.w3.org/2000/svg">
<path d="M7 3.33782C8.47087 2.48697 10.1786 2 12 2C17.5228 2 22 6.47715 22 12C22 17.5228 17.5228 22 12 22C6.47715 22 2 17.5228 2 12C2 10.1786 2.48697 8.47087 3.33782 7" stroke="#64748B" stroke-width="1.5" stroke-linecap="round"/>
<path d="M17.8871 20.0844C17.5692 17.674 16.3882 16 12 16C7.61196 16 6.43091 17.674 6.11304 20.0843M15.0001 10C15.0001 11.6569 13.6569 13 12.0001 13C10.3432 13 9.00009 11.6569 9.00009 10C9.00009 8.34315 10.3432 7 12.0001 7C13.6569 7 15.0001 8.34315 15.0001 10Z" stroke="#64748B" stroke-width="1.5" stroke-linecap="round"/>
</svg>
