<svg width="24" height="24" viewBox="0 0 24 24" fill="none" xmlns="http://www.w3.org/2000/svg">
<circle cx="3" cy="3" r="3" transform="matrix(-1 0 0 1 15 9)" stroke="#64748B" stroke-width="1.5"/>
<path d="M17.7522 5.32987C18.0676 5.35581 18.3836 5.33129 18.6881 5.2595C19.0161 5.18215 19.3775 5.24076 19.5968 5.49671C20.398 6.4317 21.0295 7.51632 21.4438 8.70289C21.569 9.0617 21.387 9.44185 21.0936 9.68352C20.4258 10.2338 20.0001 11.0672 20.0001 12C20.0001 12.9328 20.4258 13.7662 21.0936 14.3165C21.387 14.5581 21.569 14.9383 21.4438 15.2971C21.0296 16.4835 20.3981 17.5681 19.5971 18.503C19.3778 18.759 19.0163 18.8176 18.6882 18.7402C17.9705 18.5709 17.1892 18.6643 16.5001 19.0621C15.7502 19.4951 15.258 20.2029 15.0771 20.9848C15.0011 21.3136 14.7881 21.6122 14.4609 21.695C13.6737 21.8942 12.8492 22 12.0001 22C11.151 22 10.3265 21.8942 9.53934 21.695C9.21214 21.6122 8.99916 21.3137 8.92311 20.9848C8.86981 20.7544 8.78947 20.5304 8.68346 20.318M15.3562 3.75789C15.2306 3.52319 15.137 3.27319 15.0772 3.01511C15.0012 2.68633 14.7882 2.38787 14.4611 2.30508C13.6738 2.10585 12.8493 2 12.0001 2C11.1509 2 10.3265 2.10584 9.53926 2.30504C9.2121 2.38783 8.99912 2.6863 8.92305 3.01508C8.74215 3.79691 8.24991 4.5046 7.50011 4.9375C6.81109 5.33531 6.02986 5.42873 5.31213 5.25948C4.98406 5.18212 4.62266 5.24072 4.40334 5.49667C3.60216 6.43167 2.97061 7.5163 2.55637 8.70287C2.43111 9.06169 2.61319 9.44184 2.90651 9.68351C3.57433 10.2337 4.0001 11.0671 4.0001 12C4.0001 12.9329 3.57432 13.7663 2.90651 14.3165C2.61319 14.5582 2.43111 14.9383 2.55637 15.2971C2.97056 16.4836 3.60202 17.5681 4.40307 18.503C4.6224 18.759 4.98385 18.8176 5.31195 18.7402C5.65137 18.6601 6.005 18.6388 6.35637 18.6807" stroke="#64748B" stroke-width="1.5" stroke-linecap="round"/>
</svg>
