<svg width="17" height="17" viewBox="0 0 17 17" fill="none" xmlns="http://www.w3.org/2000/svg">
<path d="M4.66682 1.19403C3.9247 0.730445 2.95136 0.807246 2.3249 1.43371L1.26331 2.49529C-0.348995 4.10761 1.16598 8.23666 4.64711 11.7178C8.12824 15.1989 12.2573 16.7139 13.8696 15.1016L14.9312 14.04C15.6641 13.3071 15.6447 12.0995 14.8879 11.3428L13.2436 9.69847C12.4868 8.9417 11.2793 8.92233 10.5464 9.6552L10.3184 9.88322C9.92268 10.2789 9.28436 10.3176 8.83882 9.94995C8.40906 9.59531 7.981 9.21298 7.56646 8.79844C7.15191 8.38389 6.76958 7.95583 6.41494 7.52608C6.04728 7.08053 6.08599 6.44221 6.48168 6.04652L6.70969 5.81851C7.28745 5.24075 7.39769 4.36796 7.0477 3.65361" stroke="#2B3F6C" stroke-width="1.2375" stroke-linecap="round"/>
<path d="M12.6852 5.64049C12.4839 5.14946 12.1839 4.68942 11.7852 4.29072C11.409 3.91454 10.9782 3.62623 10.5183 3.42579" stroke="#2B3F6C" stroke-width="1.2375" stroke-linecap="round"/>
<path d="M10.5184 0.618784C11.6195 1.01768 12.6526 1.65849 13.5353 2.54123C14.4402 3.44612 15.0909 4.50901 15.4873 5.64115" stroke="#2B3F6C" stroke-width="1.2375" stroke-linecap="round"/>
</svg>
