<svg width="24" height="24" viewBox="0 0 24 24" fill="none" xmlns="http://www.w3.org/2000/svg">
<path d="M2 10.25V9.5C2 7.567 3.567 6 5.5 6H12.5C14.433 6 16 7.567 16 9.5V15.5C16 17.433 14.433 19 12.5 19H5.5C3.567 19 2 17.433 2 15.5V13.75" stroke="#1D4ED8" stroke-width="1.5" stroke-linecap="round"/>
<path d="M16 13.8964H15.25V14.2921L15.5766 14.5154L16 13.8964ZM18.5726 8.46399C18.2322 8.70003 18.1476 9.16731 18.3837 9.50769C18.6197 9.84807 19.087 9.93266 19.4274 9.69663L19 9.08031L18.5726 8.46399ZM20.1226 16.716L19.6992 17.335L20.1226 16.716ZM20.1226 16.716L20.546 16.0969L16.4234 13.2773L16 13.8964L15.5766 14.5154L19.6992 17.335L20.1226 16.716ZM16 13.8964H16.75V11.1606H16H15.25V13.8964H16ZM22 9.29241H21.25V11H22H22.75V9.29241H22ZM22 14H21.25V15.7255H22H22.75V14H22ZM22 11H21.25V12.5H22H22.75V11H22ZM22 12.5H21.25V14H22H22.75V12.5H22ZM19 9.08031L19.4274 9.69663L20.5436 8.92262L20.1162 8.3063L19.6888 7.68998L18.5726 8.46399L19 9.08031ZM20.1226 16.716L19.6992 17.335C20.9934 18.2202 22.75 17.2934 22.75 15.7255H22H21.25C21.25 16.0873 20.8446 16.3012 20.546 16.0969L20.1226 16.716ZM22 9.29241H22.75C22.75 7.71874 20.982 6.79325 19.6888 7.68998L20.1162 8.3063L20.5436 8.92262C20.842 8.71568 21.25 8.92925 21.25 9.29241H22Z" fill="#1D4ED8"/>
</svg>
