<svg width="21" height="21" viewBox="0 0 21 21" fill="none" xmlns="http://www.w3.org/2000/svg">
<path d="M14.0209 3.70069L14.5515 3.17063L14.5515 3.17063L14.0209 3.70069ZM6.76995 18.1795L6.23935 18.7095V18.7095L6.76995 18.1795ZM2.65326 14.0586L3.18386 13.5285V13.5285L2.65326 14.0586ZM15.5985 13.7448L15.3347 13.0427V13.0427L15.5985 13.7448ZM13.6814 14.4651L13.9452 15.1672V15.1672L13.6814 14.4651ZM6.36377 7.13226L5.65955 6.87424H5.65955L6.36377 7.13226ZM7.05822 5.23685L7.76244 5.49487V5.49487L7.05822 5.23685ZM3.87661 9.42395L4.07595 10.147H4.07595L3.87661 9.42395ZM5.33324 8.88562L4.89503 8.27695L4.89503 8.27695L5.33324 8.88562ZM5.70739 8.54087L6.27822 9.02734H6.27822L5.70739 8.54087ZM12.2826 15.131L12.7735 15.6979L12.7735 15.6979L12.2826 15.131ZM11.4121 16.9517L10.689 16.7527V16.7527L11.4121 16.9517ZM11.9485 15.4971L11.3391 15.0598L11.3391 15.0598L11.9485 15.4971ZM0.750032 11.5057L4.66704e-05 11.5104V11.5104L0.750032 11.5057ZM0.962026 10.7026L0.312105 10.3283H0.312105L0.962026 10.7026ZM9.33681 20.0936L9.33794 19.3436H9.33794L9.33681 20.0936ZM10.1248 19.8852L9.75311 19.2338L9.75311 19.2338L10.1248 19.8852ZM19.9967 11.0554L20.7298 11.2139L19.9967 11.0554ZM9.72883 0.786549L9.89041 1.51894V1.51894L9.72883 0.786549ZM20.3867 9.38077C20.1825 9.02038 19.7249 8.89376 19.3645 9.09795C19.0041 9.30214 18.8775 9.75982 19.0817 10.1202L19.7342 9.75049L20.3867 9.38077ZM16.0375 6.78055C16.3303 7.07359 16.8051 7.07383 17.0982 6.78109C17.3912 6.48834 17.3915 6.01347 17.0987 5.72043L16.5681 6.25049L16.0375 6.78055ZM6.76995 18.1795L7.30055 17.6494L3.18386 13.5285L2.65326 14.0586L2.12266 14.5887L6.23935 18.7095L6.76995 18.1795ZM15.5985 13.7448L15.3347 13.0427L13.4176 13.763L13.6814 14.4651L13.9452 15.1672L15.8623 14.4469L15.5985 13.7448ZM6.36377 7.13226L7.06799 7.39028L7.76244 5.49487L7.05822 5.23685L6.354 4.97883L5.65955 6.87424L6.36377 7.13226ZM3.87661 9.42395L4.07595 10.147C4.7874 9.95083 5.32876 9.81299 5.77144 9.49428L5.33324 8.88562L4.89503 8.27695C4.7221 8.40145 4.49758 8.47477 3.67727 8.70093L3.87661 9.42395ZM6.36377 7.13226L5.65955 6.87424C5.36659 7.67381 5.27495 7.89201 5.13656 8.0544L5.70739 8.54087L6.27822 9.02734C6.63198 8.61223 6.81387 8.08386 7.06799 7.39028L6.36377 7.13226ZM5.33324 8.88562L5.77144 9.49428C5.95853 9.35959 6.12869 9.20281 6.27822 9.02734L5.70739 8.54087L5.13656 8.0544C5.06527 8.13805 4.98417 8.21278 4.89503 8.27695L5.33324 8.88562ZM13.6814 14.4651L13.4176 13.763C12.7285 14.0219 12.2032 14.2076 11.7916 14.564L12.2826 15.131L12.7735 15.6979C12.9344 15.5587 13.1508 15.4656 13.9452 15.1672L13.6814 14.4651ZM11.4121 16.9517L12.1353 17.1506C12.3606 16.3318 12.4336 16.1074 12.5578 15.9343L11.9485 15.4971L11.3391 15.0598C11.0217 15.5021 10.8845 16.0423 10.689 16.7527L11.4121 16.9517ZM12.2826 15.131L11.7916 14.564C11.6219 14.711 11.47 14.8774 11.3391 15.0598L11.9485 15.4971L12.5578 15.9343C12.6203 15.8473 12.6927 15.768 12.7735 15.6979L12.2826 15.131ZM2.65326 14.0586L3.18386 13.5285C2.53772 12.8818 2.09956 12.4415 1.81523 12.0843C1.52992 11.7258 1.50046 11.5706 1.50002 11.501L0.750032 11.5057L4.66704e-05 11.5104C0.00372434 12.0926 0.292841 12.5802 0.641594 13.0184C0.991331 13.4578 1.50272 13.9681 2.12266 14.5887L2.65326 14.0586ZM3.87661 9.42395L3.67727 8.70093C2.83205 8.93395 2.13553 9.12479 1.61454 9.33394C1.09498 9.54252 0.602731 9.82364 0.312105 10.3283L0.962026 10.7026L1.61195 11.0769C1.64657 11.0168 1.7485 10.8965 2.17337 10.726C2.5968 10.556 3.19495 10.3899 4.07595 10.147L3.87661 9.42395ZM0.750032 11.5057L1.50002 11.501C1.49908 11.3521 1.53773 11.2057 1.61195 11.0769L0.962026 10.7026L0.312105 10.3283C0.105112 10.6877 -0.00257266 11.0957 4.66704e-05 11.5104L0.750032 11.5057ZM6.76995 18.1795L6.23935 18.7095C6.86321 19.3341 7.37621 19.8492 7.81804 20.2011C8.25859 20.552 8.74946 20.8427 9.33569 20.8436L9.33681 20.0936L9.33794 19.3436C9.26848 19.3435 9.11298 19.3149 8.75255 19.0278C8.39339 18.7417 7.9508 18.3003 7.30055 17.6494L6.76995 18.1795ZM11.4121 16.9517L10.689 16.7527C10.4448 17.6402 10.2778 18.2429 10.1067 18.6692C9.93489 19.0972 9.81369 19.1992 9.75311 19.2338L10.1248 19.8852L10.4966 20.5366C11.0056 20.2461 11.2888 19.7508 11.4987 19.228C11.7092 18.7036 11.901 18.0021 12.1353 17.1506L11.4121 16.9517ZM9.33681 20.0936L9.33568 20.8436C9.7428 20.8442 10.143 20.7384 10.4966 20.5366L10.1248 19.8852L9.75311 19.2338C9.62659 19.306 9.48348 19.3438 9.33794 19.3436L9.33681 20.0936ZM15.5985 13.7448L15.8623 14.4469C17.2237 13.9354 18.3255 13.5235 19.1086 13.0889C19.9034 12.6478 20.5399 12.0921 20.7298 11.2139L19.9967 11.0554L19.2637 10.8969C19.2095 11.1473 19.0317 11.416 18.3807 11.7773C17.718 12.1451 16.7428 12.5137 15.3347 13.0427L15.5985 13.7448ZM14.0209 3.70069L14.5515 3.17063C13.5156 2.13369 12.6796 1.29401 11.9561 0.756873C11.2224 0.212136 10.449 -0.140387 9.56724 0.0541623L9.72883 0.786549L9.89041 1.51894C10.1401 1.46384 10.4593 1.51379 11.062 1.96124C11.6749 2.41628 12.4192 3.15849 13.4903 4.23075L14.0209 3.70069ZM7.05822 5.23685L7.76244 5.49487C8.28405 4.07123 8.64768 3.08451 9.01275 2.41364C9.37177 1.75387 9.64055 1.57406 9.89041 1.51894L9.72883 0.786549L9.56724 0.0541623C8.68557 0.248683 8.13208 0.893806 7.69519 1.69667C7.26435 2.48842 6.85845 3.60203 6.354 4.97883L7.05822 5.23685ZM19.7342 9.75049L19.0817 10.1202C19.283 10.4756 19.306 10.7012 19.2637 10.8969L19.9967 11.0554L20.7298 11.2139C20.8719 10.5569 20.7111 9.95318 20.3867 9.38077L19.7342 9.75049ZM14.0209 3.70069L13.4903 4.23075L16.0375 6.78055L16.5681 6.25049L17.0987 5.72043L14.5515 3.17063L14.0209 3.70069Z" fill="#2B3F6C"/>
</svg>
